<?xml version="1.0" encoding="UTF-8"?><svg width="17px" height="16px" viewBox="0 0 17 16" version="1.1" xmlns="http://www.w3.org/2000/svg" xmlns:xlink="http://www.w3.org/1999/xlink" fill="currentColor"><title>分享</title><g id="新手引导" stroke="none" stroke-width="1" fill-rule="evenodd"><g id="03-loading-工作空间加载完成" transform="translate(-1556, -12)"><g id="中部" transform="translate(350, 0)"><g id="图标" transform="translate(885.9737, 6)"><g id="分享" transform="translate(320.2619, 6)"><rect id="矩形" x="0" y="0" width="16" height="16"/><path d="M5.32476367,2.07143652 L5.32476367,3.42856348 L2.35712695,3.42856348 L2.35712695,13.3809453 L13.2142725,13.3809453 L13.2142725,8.17858203 L14.571418,8.17858203 L14.571418,13.3809453 C14.571418,14.1304761 13.9638032,14.7380908 13.2142725,14.7380908 L2.35714551,14.7380908 C1.60761474,14.7380908 1,14.1304761 1,13.3809453 L1,3.42858203 C1,2.67905126 1.60761474,2.07143652 2.35714551,2.07143652 L5.32476367,2.07143652 Z M12.4465908,0.207172852 L15.6453818,3.4055 L12.2869092,6.76443652 L11.3269453,5.80493652 L12.7985361,4.33332715 L11.1785635,4.33332715 C8.59818164,4.33332715 6.49823633,6.39076367 6.43038184,8.95485449 L6.42856348,9.08332715 L6.42856348,10.8928545 L5.07141797,10.8928545 L5.07141797,9.08332715 C5.07141797,5.71038184 7.80561816,2.97618164 11.1785635,2.97618164 L13.2961543,2.97618164 L11.4870908,1.16667285 L12.4465908,0.207172852 Z" id="形状" fill-rule="nonzero"/></g></g></g></g></g></svg>