<?xml version="1.0" encoding="UTF-8"?><svg width="23px" height="22px" viewBox="0 0 23 22" version="1.1" xmlns="http://www.w3.org/2000/svg" xmlns:xlink="http://www.w3.org/1999/xlink" fill="currentColor"><title>我的交易</title><g id="新手引导" stroke="none" stroke-width="1" fill-rule="evenodd"><g id="03-loading-工作空间加载完成" transform="translate(-1439, -9)"><g id="中部" transform="translate(350, 0)"><g id="图标" transform="translate(885.9737, 6)"><g id="我的交易" transform="translate(196, 0)"><g transform="translate(8, 3)"><rect id="矩形" x="0" y="0" width="22" height="22"/><path d="M17.5193289,3.5 C17.9335424,3.5 18.3085424,3.66789322 18.579989,3.93933983 C18.8514356,4.21078644 19.0193289,4.58578644 19.0193289,5 L19.0193289,17 C19.0193289,17.4142136 18.8514356,17.7892136 18.579989,18.0606602 C18.3085424,18.3321068 17.9335424,18.5 17.5193289,18.5 L5.51932885,18.5 C5.10511529,18.5 4.73011529,18.3321068 4.45866868,18.0606602 C4.18722207,17.7892136 4.01932885,17.4142136 4.01932885,17 L4.01932885,5 C4.01932885,4.58578644 4.18722207,4.21078644 4.45866868,3.93933983 C4.73011529,3.66789322 5.10511529,3.5 5.51932885,3.5 Z" id="矩形" stroke="currentColor"/><line x1="8.01932885" y1="8.5" x2="12.0193289" y2="8.5" id="直线" stroke="currentColor" stroke-linecap="round"/><line x1="8.01932885" y1="12" x2="15.0193289" y2="12" id="直线备份" stroke="currentColor" stroke-linecap="round"/></g></g></g></g></g></g></svg>