<?xml version="1.0" encoding="UTF-8"?><svg xmlns="http://www.w3.org/2000/svg" version="1.1" width="50px" height="44px" style="shape-rendering:geometricPrecision;text-rendering:geometricPrecision;image-rendering:optimizeQuality;fill-rule:evenodd;clip-rule:evenodd" xmlns:xlink="http://www.w3.org/1999/xlink" fill="currentColor"><g><path style="opacity:0.81" d="M 17.5,-0.5 C 22.1667,-0.5 26.8333,-0.5 31.5,-0.5C 31.5,3.5 31.5,7.5 31.5,11.5C 29.8333,11.5 28.1667,11.5 26.5,11.5C 26.5,13.8333 26.5,16.1667 26.5,18.5C 32.8333,18.5 39.1667,18.5 45.5,18.5C 45.5,22.8333 45.5,27.1667 45.5,31.5C 46.8333,31.5 48.1667,31.5 49.5,31.5C 49.5,35.5 49.5,39.5 49.5,43.5C 45.8333,43.5 42.1667,43.5 38.5,43.5C 37.4113,39.9221 37.2446,36.2554 38,32.5C 39.0113,31.6634 40.1779,31.33 41.5,31.5C 41.5,28.5 41.5,25.5 41.5,22.5C 36.5,22.5 31.5,22.5 26.5,22.5C 26.5,25.5 26.5,28.5 26.5,31.5C 27.8221,31.33 28.9887,31.6634 30,32.5C 30.4986,36.1516 30.6653,39.8183 30.5,43.5C 26.5,43.5 22.5,43.5 18.5,43.5C 18.3347,39.8183 18.5014,36.1516 19,32.5C 20.0113,31.6634 21.1779,31.33 22.5,31.5C 22.5,28.5 22.5,25.5 22.5,22.5C 17.5,22.5 12.5,22.5 7.5,22.5C 7.5,25.5 7.5,28.5 7.5,31.5C 8.82207,31.33 9.98873,31.6634 11,32.5C 11.7554,36.2554 11.5887,39.9221 10.5,43.5C 6.83333,43.5 3.16667,43.5 -0.5,43.5C -0.5,39.5 -0.5,35.5 -0.5,31.5C 0.833333,31.5 2.16667,31.5 3.5,31.5C 3.5,27.1667 3.5,22.8333 3.5,18.5C 9.83333,18.5 16.1667,18.5 22.5,18.5C 22.5,16.1667 22.5,13.8333 22.5,11.5C 20.8333,11.5 19.1667,11.5 17.5,11.5C 17.5,7.5 17.5,3.5 17.5,-0.5 Z M 21.5,2.5 C 23.5,2.5 25.5,2.5 27.5,2.5C 27.5,4.16667 27.5,5.83333 27.5,7.5C 25.5,7.5 23.5,7.5 21.5,7.5C 21.5,5.83333 21.5,4.16667 21.5,2.5 Z M 2.5,35.5 C 4.16667,35.5 5.83333,35.5 7.5,35.5C 7.5,37.1667 7.5,38.8333 7.5,40.5C 5.83333,40.5 4.16667,40.5 2.5,40.5C 2.5,38.8333 2.5,37.1667 2.5,35.5 Z M 22.5,35.5 C 23.8333,35.5 25.1667,35.5 26.5,35.5C 26.5,37.1667 26.5,38.8333 26.5,40.5C 25.1667,40.5 23.8333,40.5 22.5,40.5C 22.5,38.8333 22.5,37.1667 22.5,35.5 Z M 41.5,35.5 C 43.1667,35.5 44.8333,35.5 46.5,35.5C 46.5,37.1667 46.5,38.8333 46.5,40.5C 44.8333,40.5 43.1667,40.5 41.5,40.5C 41.5,38.8333 41.5,37.1667 41.5,35.5 Z"/></g></svg>