<?xml version="1.0" encoding="utf-8"?><!--Generator: Adobe Illustrator 28.0.0, SVG Export Plug-In . SVG Version: 6.00 Build 0)--><svg version="1.1" id="图层_1" xmlns="http://www.w3.org/2000/svg" xmlns:xlink="http://www.w3.org/1999/xlink" x="0px" y="0px" viewBox="0 0 16 16" style="enable-background:new 0 0 16 16" xml:space="preserve" fill="currentColor"><style type="text/css">.st0{fill-rule:evenodd;clip-rule:evenodd;fill:#E74C3C;}</style><path class="st0" d="M8.7,7H5C4.7,7,4.5,6.8,4.5,6.5v0C4.5,6.2,4.7,6,5,6h3.7c0.3,0,0.5,0.2,0.5,0.5v0C9.2,6.8,8.9,7,8.7,7z"/><path class="st0" d="M11,10H5c-0.3,0-0.5-0.2-0.5-0.5v0C4.5,9.2,4.7,9,5,9h6c0.3,0,0.5,0.2,0.5,0.5v0C11.5,9.8,11.3,10,11,10z"/><g id="新手引导_00000067202722333275792670000007943034126538267300_"><g id="_x30_3-loading-工作空间加载完成_00000064354173387427369380000014874914997399587498_" transform="translate(-1340, -40)"><g id="中部_00000083087358665269581950000003293560801680338317_" transform="translate(350, 0)"><g id="图标_00000067217201013183348000000003629989770474033323_" transform="translate(885.9737, 6)"><g id="模拟交易_00000114778311500837737800000007926316123682059136_" transform="translate(98, 0)"><g id="aistudio-mock-trade_00000117674405627363789530000003472707015092834471_" transform="translate(6.9998, 34)"><path id="形状结合_00000146477694845422938690000007906207990673803913_" class="st0" d="M11.5,1.5c1.1,0,2,0.9,2,2v9
							c0,1.1-0.9,2-2,2h-9c-1.1,0-2-0.9-2-2v-9c0-1.1,0.9-2,2-2H11.5z M11.5,2.5h-9c-0.6,0-1,0.4-1,1v9c0,0.6,0.4,1,1,1h9
							c0.6,0,1-0.4,1-1v-9C12.5,2.9,12.1,2.5,11.5,2.5z"/></g></g></g></g></g></g></svg>