<?xml version="1.0" encoding="utf-8"?><!--Generator: Adobe Illustrator 28.0.0, SVG Export Plug-In . SVG Version: 6.00 Build 0)--><svg version="1.1" id="图层_1" xmlns="http://www.w3.org/2000/svg" xmlns:xlink="http://www.w3.org/1999/xlink" x="0px" y="0px" viewBox="0 0 16 16" style="enable-background:new 0 0 16 16" xml:space="preserve" fill="currentColor"><style type="text/css">.st0{fill-rule:evenodd;clip-rule:evenodd;}</style><path class="st0" d="M8.6,1c1.6,0.1,3.1,0.9,4.2,2c1.3,1.4,2,3.1,2,5.1c0,1.6-0.6,3.1-1.6,4.4c-1,1.2-2.4,2.1-4,2.4
	C7.6,15.2,6,15,4.6,14.2s-2.5-2-3.1-3.5S0.8,7.5,1.3,6c0.5-1.6,1.4-2.9,2.8-3.8C5.4,1.3,7,0.9,8.6,1z M9.1,13.9
	c1.3-0.3,2.5-1,3.4-2.1c0.8-1.1,1.3-2.4,1.2-3.8c0-1.6-0.6-3.2-1.7-4.3c-1-1-2.2-1.6-3.6-1.7C7.1,1.9,5.7,2.2,4.6,3S2.7,4.9,2.3,6.3
	c-0.4,1.3-0.4,2.7,0.2,4s1.5,2.3,2.7,3S7.8,14.2,9.1,13.9z"/><g id="kb"><g transform="translate(4.375, 3.5652)"><polygon id="路径" points="7.1,7.9 5.3,7.9 3.1,4.9 2.4,5.6 2.4,7.9 1,7.9 1,1 2.4,1 2.4,3.8 5.1,1 7,1 4.1,3.8 		"/></g></g></svg>