<?xml version="1.0" encoding="UTF-8"?><svg width="25px" height="24px" viewBox="0 0 25 24" version="1.1" xmlns="http://www.w3.org/2000/svg" xmlns:xlink="http://www.w3.org/1999/xlink" fill="currentColor"><title>编组 32备份 2</title><g id="页面-1" stroke="none" stroke-width="1" fill-rule="evenodd"><g id="编组-32备份" transform="translate(0.000000, 0.500000)"><g id="编组-31" transform="translate(6.000000, 0.000000)"><path d="M6.5,0.904700538 L11.2541651,3.61084392 C11.2928403,3.63317302 11.3240903,3.66497051 11.3456715,3.70235027 C11.3672527,3.73973003 11.3791651,3.78269207 11.3791651,3.82735027 L11.3791651,3.82735027 L11.3791651,9.17264973 C11.3791651,9.26196613 11.3315154,9.34449788 11.2541651,9.38915608 L11.2541651,9.38915608 L6.625,12.0618058 C6.54764973,12.106464 6.45235027,12.106464 6.375,12.0618058 L6.375,12.0618058 L1.74583488,9.38915608 C1.66848461,9.34449788 1.62083488,9.26196613 1.62083488,9.17264973 L1.62083488,9.17264973 L1.62083488,3.82735027 C1.62083488,3.73803387 1.66848461,3.65550212 1.74583488,3.61084392 L1.74583488,3.61084392 L6.375,0.938194187 C6.41367513,0.915865088 6.45683757,0.904700538 6.5,0.904700538 L6.5,0.904700538 Z" id="多边形" stroke="#989898" stroke-width="1.5"/><path d="M4.61877442,2.53265937 L7.53471883,3.25302421 L8.41452676,6.21477929 L5.45106849,5.33446542 L4.61877442,2.53265937 Z" id="矩形" stroke="#979797" stroke-width="0.5" transform="translate(6.492641, 4.292893) rotate(-45.000000) translate(-6.492641, -4.292893) "/></g><g id="编组-31备份" transform="translate(0.000000, 10.500000)"><path d="M6.5,0.866025404 L11.3791651,3.6830127 L11.3791651,9.3169873 L6.5,12.1339746 L1.62083488,9.3169873 L1.62083488,3.6830127 L6.5,0.866025404 Z" id="多边形" stroke="#989898" stroke-width="1.5"/><path d="M4.61877442,2.53265937 L7.53471883,3.25302421 L8.41452676,6.21477929 L5.45106849,5.33446542 L4.61877442,2.53265937 Z" id="矩形" stroke="#979797" stroke-width="0.5" transform="translate(6.492641, 4.292893) rotate(-45.000000) translate(-6.492641, -4.292893) "/></g><g id="编组-31备份-2" transform="translate(12.000000, 10.500000)"><path d="M6.5,0.904700538 L11.2541651,3.61084392 C11.2928403,3.63317302 11.3240903,3.66497051 11.3456715,3.70235027 C11.3672527,3.73973003 11.3791651,3.78269207 11.3791651,3.82735027 L11.3791651,3.82735027 L11.3791651,9.17264973 C11.3791651,9.26196613 11.3315154,9.34449788 11.2541651,9.38915608 L11.2541651,9.38915608 L6.625,12.0618058 C6.54764973,12.106464 6.45235027,12.106464 6.375,12.0618058 L6.375,12.0618058 L1.74583488,9.38915608 C1.66848461,9.34449788 1.62083488,9.26196613 1.62083488,9.17264973 L1.62083488,9.17264973 L1.62083488,3.82735027 C1.62083488,3.73803387 1.66848461,3.65550212 1.74583488,3.61084392 L1.74583488,3.61084392 L6.375,0.938194187 C6.41367513,0.915865088 6.45683757,0.904700538 6.5,0.904700538 L6.5,0.904700538 Z" id="多边形" stroke="#989898" stroke-width="1.5"/><path d="M4.61877442,2.53265937 L7.53471883,3.25302421 L8.41452676,6.21477929 L5.45106849,5.33446542 L4.61877442,2.53265937 Z" id="矩形" stroke="#979797" stroke-width="0.5" transform="translate(6.492641, 4.292893) rotate(-45.000000) translate(-6.492641, -4.292893) "/></g></g></g></svg>