<?xml version="1.0" encoding="utf-8"?><!--Generator: Adobe Illustrator 28.0.0, SVG Export Plug-In . SVG Version: 6.00 Build 0)--><svg version="1.1" id="图层_1" xmlns="http://www.w3.org/2000/svg" xmlns:xlink="http://www.w3.org/1999/xlink" x="0px" y="0px" viewBox="0 0 24 24" style="enable-background:new 0 0 24 24" xml:space="preserve" fill="currentColor"><g id="新手引导"><g id="_x30_3-loading-工作空间加载完成" transform="translate(-1556, -12)"><g id="中部" transform="translate(350, 0)"><g id="图标" transform="translate(885.9737, 6)"><g id="分享" transform="translate(320.2619, 6)"><path id="形状" d="M7.6,4.6c0,0.6-0.5,1.1-1.1,1.1H3.2l0,0v15.2h16.6V14c0-0.6,0.5-1.1,1.1-1.1c0.6,0,1.1,0.5,1.1,1.1v6.8
						l0,0c0,1.1-0.9,2.1-2.1,2.1H3.2C2.1,23,1,22,1,20.8V5.6C1,4.6,2,3.5,3.2,3.5h3.5C7.1,3.5,7.6,4,7.6,4.6z M19.1,1.4l4.1,4.1l0,0
						l-4.4,4.4c-0.5,0.5-1.1,0.5-1.5,0c-0.5-0.5-0.5-1.1,0-1.5l0,0l1.5-1.5l0,0h-2.4c-3.8,0-7,3.2-7.1,7.1v0.2v1.7
						c0,0.6-0.5,1.1-1.1,1.1s-1.1-0.5-1.1-1.1v-1.7l0,0c0-5.2,4.1-9.3,9.3-9.3h3.2l-2-2c-0.5-0.5-0.5-1.1,0-1.5S18.8,0.9,19.1,1.4z"/></g></g></g></g></g></svg>