<?xml version="1.0" encoding="UTF-8"?><svg xmlns="http://www.w3.org/2000/svg" version="1.1" width="24px" height="24px" style="shape-rendering:geometricPrecision;text-rendering:geometricPrecision;image-rendering:optimizeQuality;fill-rule:evenodd;clip-rule:evenodd" xmlns:xlink="http://www.w3.org/1999/xlink" fill="currentColor"><g><path style="opacity:0.659" d="M 0.5,0.5 C 2.92397,0.192441 5.25731,0.525774 7.5,1.5C 6.97473,2.19238 6.30806,2.69238 5.5,3C 6.83333,4.33333 8.16667,5.66667 9.5,7C 8.66667,7.83333 7.83333,8.66667 7,9.5C 5.66667,8.16667 4.33333,6.83333 3,5.5C 2.69238,6.30806 2.19238,6.97473 1.5,7.5C 0.525774,5.25731 0.192441,2.92397 0.5,0.5 Z"/></g><g><path style="opacity:0.659" d="M 15.5,0.5 C 17.8333,0.5 20.1667,0.5 22.5,0.5C 22.8076,2.92397 22.4742,5.25731 21.5,7.5C 20.8076,6.97473 20.3076,6.30806 20,5.5C 18.6667,6.83333 17.3333,8.16667 16,9.5C 15.1667,8.66667 14.3333,7.83333 13.5,7C 14.8333,5.66667 16.1667,4.33333 17.5,3C 16.244,2.58309 15.5774,1.74975 15.5,0.5 Z"/></g><g><path style="opacity:0.66" d="M 6.5,13.5 C 7.62656,14.1217 8.62656,14.955 9.5,16C 8.16667,17.3333 6.83333,18.6667 5.5,20C 6.30806,20.3076 6.97473,20.8076 7.5,21.5C 5.25731,22.4742 2.92397,22.8076 0.5,22.5C 0.192441,20.076 0.525774,17.7427 1.5,15.5C 2.19238,16.0253 2.69238,16.6919 3,17.5C 4.37561,16.2949 5.54227,14.9616 6.5,13.5 Z"/></g><g><path style="opacity:0.66" d="M 15.5,13.5 C 17.1288,14.6253 18.6288,15.9586 20,17.5C 20.3076,16.6919 20.8076,16.0253 21.5,15.5C 22.4742,17.7427 22.8076,20.076 22.5,22.5C 20.076,22.8076 17.7427,22.4742 15.5,21.5C 16.0253,20.8076 16.6919,20.3076 17.5,20C 16.1667,18.6667 14.8333,17.3333 13.5,16C 14.3805,15.2917 15.0472,14.4584 15.5,13.5 Z"/></g></svg>