<?xml version="1.0" encoding="utf-8"?><!--Generator: Adobe Illustrator 28.0.0, SVG Export Plug-In . SVG Version: 6.00 Build 0)--><svg version="1.1" id="图层_1" xmlns="http://www.w3.org/2000/svg" xmlns:xlink="http://www.w3.org/1999/xlink" x="0px" y="0px" viewBox="0 0 16 16" style="enable-background:new 0 0 16 16" xml:space="preserve" fill="currentColor"><style type="text/css">.st0{fill-rule:evenodd;clip-rule:evenodd;fill:#E74C3C;}</style><g id="新手引导"><g id="_x30_3-loading-工作空间加载完成" transform="translate(-1340, -40)"><g id="中部" transform="translate(350, 0)"><g id="图标" transform="translate(885.9737, 6)"><g id="模拟交易" transform="translate(98, 0)"><g id="aistudio-mock-trade" transform="translate(6.9998, 34)"><path id="形状结合" class="st0" d="M11.5,1.5c1.1,0,2,0.9,2,2v9c0,1.1-0.9,2-2,2h-9c-1.1,0-2-0.9-2-2v-9c0-1.1,0.9-2,2-2
							H11.5z M11.5,2.5h-9c-0.6,0-1,0.4-1,1v9c0,0.6,0.4,1,1,1h9c0.6,0,1-0.4,1-1v-9C12.5,2.9,12.1,2.5,11.5,2.5z"/><path id="形状结合_00000017489149014763242460000017650579707541349028_" class="st0" d="M10.6,4.7l0,3L9.6,7L7.7,9.9
							L5.2,8.6l-1.5,1.8c-0.2,0.2-0.5,0.2-0.7,0.1l0,0C2.7,10.3,2.7,10,2.8,9.8c0,0,0,0,0,0l2-2.6l2.5,1.4l1.3-2.1L7.4,5.7L10.6,4.7
							z"/></g></g></g></g></g></g></svg>