<?xml version="1.0" encoding="utf-8"?><!--Generator: Adobe Illustrator 28.0.0, SVG Export Plug-In . SVG Version: 6.00 Build 0)--><svg version="1.1" id="图层_1" xmlns="http://www.w3.org/2000/svg" xmlns:xlink="http://www.w3.org/1999/xlink" x="0px" y="0px" viewBox="0 0 16 16" style="enable-background:new 0 0 16 16" xml:space="preserve" fill="currentColor"><style type="text/css">.st0{fill-rule:evenodd;clip-rule:evenodd;fill:#E74C3C;}</style><g id="新手引导"><g id="_x30_3-loading-工作空间加载完成" transform="translate(-1340, -40)"><g id="中部" transform="translate(350, 0)"><g id="图标" transform="translate(885.9737, 6)"><g id="模拟交易" transform="translate(98, 0)"><g id="aistudio-mock-trade" transform="translate(6.9998, 34)"><path id="形状结合" class="st0" d="M11,2c1.1,0,2,0.9,2,2v8c0,1.1-0.9,2-2,2H3c-1.1,0-2-0.9-2-2V4c0-1.1,0.9-2,2-2H11z
							 M11,3H3C2.5,3,2,3.4,2,4v8c0,0.6,0.4,1,1,1h8c0.6,0,1-0.4,1-1V4C12,3.4,11.6,3,11,3z"/></g></g></g></g></g></g><path class="st0" d="M8.5,7h-3C5.2,7,5,6.8,5,6.5v0C5,6.2,5.2,6,5.5,6h3C8.8,6,9,6.2,9,6.5v0C9,6.8,8.8,7,8.5,7z"/><path class="st0" d="M10.5,10h-5C5.2,10,5,9.8,5,9.5v0C5,9.2,5.2,9,5.5,9h5C10.8,9,11,9.2,11,9.5v0C11,9.8,10.8,10,10.5,10z"/></svg>